<svg width="101" height="36" viewBox="0 0 101 36" fill="none" xmlns="http://www.w3.org/2000/svg">
<path d="M12.48 5.08C15.1467 5.08 17.1333 6.06667 18.44 8.04C19.7467 10.0133 20.4 12.7733 20.4 16.32C20.4 18.5067 20.0533 20.4667 19.36 22.2C18.6933 23.9067 17.72 25.2533 16.44 26.24C15.16 27.2 13.6667 27.68 11.96 27.68C9.82667 27.68 8.10667 26.9467 6.8 25.48V35.2L0.48 35.88V5.76H6.04L6.36 8.12C7.18667 7.08 8.13333 6.32 9.2 5.84C10.2667 5.33333 11.36 5.08 12.48 5.08ZM10.04 23.04C12.5733 23.04 13.84 20.8267 13.84 16.4C13.84 13.8933 13.56 12.16 13 11.2C12.44 10.2133 11.6 9.72 10.48 9.72C9.76 9.72 9.08 9.93333 8.44 10.36C7.82667 10.7867 7.28 11.4 6.8 12.2V21.16C7.65333 22.4133 8.73333 23.04 10.04 23.04ZM42.8672 15.96C42.8672 16.84 42.8272 17.6 42.7472 18.24H29.5872C29.8005 20.0267 30.3072 21.28 31.1072 22C31.9072 22.72 33.0139 23.08 34.4272 23.08C35.2805 23.08 36.1072 22.9333 36.9072 22.64C37.7072 22.32 38.5739 21.84 39.5072 21.2L42.1072 24.72C39.6272 26.6933 36.8672 27.68 33.8272 27.68C30.3872 27.68 27.7472 26.6667 25.9072 24.64C24.0672 22.6133 23.1472 19.8933 23.1472 16.48C23.1472 14.32 23.5339 12.3867 24.3072 10.68C25.0805 8.94667 26.2139 7.58667 27.7072 6.6C29.2005 5.58666 30.9872 5.08 33.0672 5.08C36.1339 5.08 38.5339 6.04 40.2672 7.96C42.0005 9.88 42.8672 12.5467 42.8672 15.96ZM36.6672 14.16C36.6139 10.9067 35.4672 9.28 33.2272 9.28C32.1339 9.28 31.2805 9.68 30.6672 10.48C30.0805 11.28 29.7205 12.6 29.5872 14.44H36.6672V14.16ZM59.7375 26C58.9642 26.5333 58.0575 26.9467 57.0175 27.24C56.0042 27.5333 54.9908 27.68 53.9775 27.68C49.3375 27.6533 47.0175 25.0933 47.0175 20V10.16H44.0175V5.76H47.0175V1.16L53.3375 0.439999V5.76H58.2175L57.5375 10.16H53.3375V19.92C53.3375 20.9067 53.4975 21.6133 53.8175 22.04C54.1375 22.4667 54.6442 22.68 55.3375 22.68C56.0575 22.68 56.8175 22.4533 57.6175 22L59.7375 26ZM79.7672 27H74.2872L74.0072 24.32C72.4605 26.56 70.3139 27.68 67.5672 27.68C65.6205 27.68 64.1405 27.0933 63.1272 25.92C62.1405 24.7467 61.6472 23.1067 61.6472 21V5.76H67.9672V20.2C67.9672 21.24 68.1272 21.9733 68.4472 22.4C68.7939 22.8 69.3139 23 70.0072 23C71.3405 23 72.4872 22.1733 73.4472 20.52V5.76H79.7672V27ZM92.2178 5.08C93.7378 5.08 95.1645 5.30667 96.4978 5.76C97.8311 6.21333 99.0045 6.85333 100.018 7.68L97.6978 11.24C95.9645 10.1467 94.2178 9.6 92.4578 9.6C91.6311 9.6 90.9911 9.74667 90.5378 10.04C90.1111 10.3067 89.8978 10.6933 89.8978 11.2C89.8978 11.6 89.9911 11.9333 90.1778 12.2C90.3911 12.44 90.8045 12.6933 91.4178 12.96C92.0311 13.2267 92.9778 13.5467 94.2578 13.92C96.4711 14.56 98.1111 15.4 99.1778 16.44C100.271 17.4533 100.818 18.8667 100.818 20.68C100.818 22.12 100.404 23.3733 99.5778 24.44C98.7511 25.48 97.6178 26.28 96.1778 26.84C94.7378 27.4 93.1378 27.68 91.3778 27.68C89.5911 27.68 87.9245 27.4 86.3778 26.84C84.8578 26.28 83.5645 25.5067 82.4978 24.52L85.5778 21.08C87.3645 22.4667 89.2445 23.16 91.2178 23.16C92.1778 23.16 92.9245 22.9867 93.4578 22.64C94.0178 22.2933 94.2978 21.8 94.2978 21.16C94.2978 20.6533 94.1911 20.2533 93.9778 19.96C93.7645 19.6667 93.3511 19.4 92.7378 19.16C92.1245 18.8933 91.1511 18.5733 89.8178 18.2C87.7111 17.5867 86.1378 16.7333 85.0978 15.64C84.0578 14.5467 83.5378 13.1867 83.5378 11.56C83.5378 10.3333 83.8845 9.24 84.5778 8.28C85.2978 7.29333 86.3111 6.52 87.6178 5.96C88.9511 5.37333 90.4845 5.08 92.2178 5.08Z" fill="white"/>
</svg>
